<?xml version="1.0" encoding="UTF-8" standalone="no"?>
<!-- Created with Inkscape (http://www.inkscape.org/) -->

<svg
   width="500px"
   height="500px"
   viewBox="0 0 210 297"
   version="1.1"
   id="svg5"
   inkscape:version="1.1.2 (b8e25be833, 2022-02-05)"
   sodipodi:docname="LOGO.svg"
   xmlns:inkscape="http://www.inkscape.org/namespaces/inkscape"
   xmlns:sodipodi="http://sodipodi.sourceforge.net/DTD/sodipodi-0.dtd"
   xmlns="http://www.w3.org/2000/svg"
   xmlns:svg="http://www.w3.org/2000/svg">
  <sodipodi:namedview
     id="namedview7"
     pagecolor="#505050"
     bordercolor="#eeeeee"
     borderopacity="1"
     inkscape:pageshadow="0"
     inkscape:pageopacity="0"
     inkscape:pagecheckerboard="0"
     inkscape:document-units="mm"
     showgrid="false"
     inkscape:snap-nodes="false"
     inkscape:zoom="1.0469406"
     inkscape:cx="231.62728"
     inkscape:cy="262.67011"
     inkscape:window-width="1920"
     inkscape:window-height="1017"
     inkscape:window-x="-8"
     inkscape:window-y="-8"
     inkscape:window-maximized="1"
     inkscape:current-layer="layer1" />
  <defs
     id="defs2">
    <inkscape:perspective
       sodipodi:type="inkscape:persp3d"
       inkscape:vp_x="0 : 148.5 : 1"
       inkscape:vp_y="0 : 1000 : 0"
       inkscape:vp_z="210 : 148.5 : 1"
       inkscape:persp3d-origin="105 : 99 : 1"
       id="perspective2278" />
  </defs>
  <g
     inkscape:label="Layer 1"
     inkscape:groupmode="layer"
     id="layer1">
    <path
       style="fill:#aad400;stroke-width:0.675403"
       d="m 217.26871,346.34734 c -0.3877,-1.04052 -2.27092,-5.35236 -4.18492,-9.58189 -6.01327,-13.28797 -16.20383,-40.01452 -16.20383,-42.4974 0,-0.51747 0.77487,-0.47216 2.53292,0.14812 4.86759,1.71738 12.52043,2.61336 18.74227,2.19431 14.48861,-0.97583 25.52866,-6.56743 30.41133,-15.40281 1.68006,-3.04013 1.99888,-4.37116 1.99888,-8.34488 0,-3.97373 -0.31882,-5.30475 -1.99888,-8.34488 -4.86926,-8.81113 -15.89413,-14.43985 -30.21015,-15.42375 -9.75219,-0.67023 -21.14298,1.90713 -27.78582,6.28703 -1.42711,0.94095 -2.74544,1.56011 -2.92963,1.37593 -0.97478,-0.97479 -2.38343,-15.69891 -2.43302,-25.43161 -0.0854,-16.76273 1.7861,-25.42837 8.3144,-38.49797 14.76733,-29.56407 53.66828,-70.74329 108.65728,-115.020907 l 9.73006,-7.83473 3.01212,2.16121 c 4.68509,3.361578 24.20344,19.060499 30.20918,24.29773 32.28484,28.153587 52.90539,51.676407 62.18136,70.933197 10.04112,20.84521 6.47705,35.17929 -10.99428,44.21712 -7.69454,3.98034 -14.38083,5.83856 -30.96583,8.60584 -26.00389,4.33886 -42.15134,9.14879 -60.07002,17.89335 -10.17919,4.96759 -18.50798,9.99799 -26.44912,15.97467 -28.12207,21.16528 -49.59907,53.14462 -58.61604,87.2795 -0.92034,3.48406 -1.8016,6.46291 -1.95835,6.61965 -0.15674,0.15675 -0.6022,-0.56633 -0.98991,-1.60683 z m 38.58172,-98.80088 c 12.13844,-4.60857 12.13844,-15.69723 0,-20.27455 -8.03946,-3.03162 -18.74697,-2.32585 -25.59441,1.68703 -7.28352,4.26842 -7.38395,12.25724 -0.20993,16.69916 6.70198,4.14966 17.72389,4.95624 25.80434,1.88836 z m 15.00674,-25.01116 c 5.85867,-2.83613 5.66735,-9.3198 -0.34601,-11.72587 -3.46648,-1.387 -6.01372,-1.387 -9.4802,0 -5.99767,2.39979 -6.19173,9.16482 -0.33918,11.82347 3.54679,1.6112 6.69797,1.58094 10.16539,-0.0976 z"
       id="path1983"
       transform="matrix(0.594,0,0,0.594,-43.5,0)" />
    <path
       style="fill:#5aa02c;stroke:#000000;stroke-width:0.594px;stroke-linecap:butt;stroke-linejoin:miter;stroke-opacity:1"
       d="m 88.090103,236.30052 c 0,0 -2.808325,-83.04619 73.818847,-93.8783 76.62716,-10.83212 40.11893,-54.561755 40.11893,-54.561755 0,0 87.45928,66.597435 -20.05947,125.973455 -107.518745,59.37602 -93.878307,22.4666 -93.878307,22.4666 z"
       id="path109" />
    <path
       style="fill:none;stroke:#000000;stroke-width:0.594px;stroke-linecap:butt;stroke-linejoin:miter;stroke-opacity:1"
       d="m 82.072265,266.38972 c 0,0 11.233301,-72.21408 -23.670169,-95.08187 -34.903476,-22.86779 -58.17245752,0.40119 -58.17245752,0.40119 0,0 39.95978852,-7.89323 23.67016952,30.89158 l -8.424976,20.05947 c 0,0 -14.4428148,46.53796 66.597433,43.72963 z"
       id="path625"
       sodipodi:nodetypes="cscscc" />
    <path
       style="fill:#5aa02c;stroke-width:0.675403"
       d="m 185.39811,447.43097 c -52.54016,-2.84217 -82.27221,-21.12163 -86.544214,-53.20794 -1.457959,-10.9505 -0.579254,-14.57634 9.238224,-38.1202 11.39844,-27.33526 12.03421,-29.4932 12.08749,-41.02736 0.0479,-10.37124 -0.74254,-13.03474 -5.39737,-18.18708 -5.83197,-6.45528 -12.82305,-8.8723 -27.291956,-9.43558 l -10.443142,-0.40656 4.364516,-2.83107 c 6.027746,-3.90993 13.378964,-7.25658 20.574182,-9.36644 8.0559,-2.36223 22.00534,-2.99758 31.06854,-1.41507 14.93447,2.60768 33.60232,11.31795 44.91429,20.95664 17.36995,14.80056 28.83602,40.84684 33.4096,75.8931 2.41024,18.46912 2.54314,46.72212 0.32401,68.88145 l -0.8127,8.11533 -4.06457,0.42483 c -4.59231,0.47999 -8.38434,0.43149 -21.4269,-0.27405 z"
       id="path1595"
       transform="matrix(0.594,0,0,0.594,-43.5,0)" />
    <path
       style="fill:none;stroke:#000000;stroke-width:0.594px;stroke-linecap:butt;stroke-linejoin:miter;stroke-opacity:1"
       d="m 86.485347,208.61846 c 0,0 9.628544,-66.99862 87.860473,-77.42954 78.23192,-10.43093 -32.49634,-90.267607 -32.49634,-90.267607 0,0 -66.998621,50.549858 -74.621221,83.046197 -7.622594,32.49634 19.257088,84.65095 19.257088,84.65095 z"
       id="path1944" />
    <path
       style="fill:#aad400;stroke-width:0.675403"
       d="m 248.23416,283.23644 c -0.013,-0.23804 0.57761,-1.75769 1.31239,-3.37702 1.89971,-4.18656 1.80129,-10.09733 -0.24019,-14.42606 -3.01729,-6.39783 -9.35806,-11.36049 -18.31855,-14.33719 -4.85363,-1.6124 -6.43373,-1.79892 -15.53427,-1.83373 -8.79508,-0.0336 -10.79903,0.16956 -15.19657,1.54094 -2.78604,0.86882 -6.67919,2.49708 -8.65146,3.61835 -1.97226,1.12127 -3.69504,1.92957 -3.8284,1.79621 -1.80463,-1.80463 -2.69521,-35.47075 -1.13195,-42.79061 4.91306,-23.0051 22.02886,-47.98616 56.47272,-82.42375 18.26699,-18.26367 34.465,-32.708195 59.35455,-52.929235 l 9.34754,-7.594239 2.75401,1.907109 c 3.63605,2.517897 23.12762,18.155784 29.54382,23.702691 19.19123,16.591144 37.87988,35.567154 48.63164,49.379404 22.44358,28.83213 25.63306,49.91502 9.36324,61.89218 -8.27273,6.09003 -15.34708,8.54219 -35.03118,12.14272 -30.38715,5.5583 -43.29063,9.37138 -61.79937,18.26224 -9.41263,4.52144 -18.49465,9.99871 -26.67842,16.08945 -6.33211,4.71265 -22.13111,19.86965 -27.55609,26.43632 -1.53443,1.85736 -2.80049,3.18226 -2.81346,2.94422 z m 5.2827,-34.65401 c 9.08854,-2.41906 13.74118,-9.08998 10.58995,-15.1838 -4.85709,-9.39257 -27.40569,-11.14325 -36.32808,-2.82054 -2.30751,2.15242 -2.74863,3.01529 -2.99431,5.85712 -0.34754,4.01993 1.14545,6.81703 4.99506,9.3582 5.31731,3.51002 16.21702,4.79068 23.73738,2.78902 z m 17.40987,-25.78751 c 2.89977,-1.37603 4.29997,-3.32674 4.29997,-5.99058 0,-4.14609 -3.92753,-7.09173 -9.45564,-7.09173 -7.34739,0 -11.83426,5.75913 -8.35589,10.72521 2.31445,3.30433 9.04214,4.47798 13.51156,2.3571 z"
       id="path2391"
       transform="matrix(0.594,0,0,0.594,-43.5,0)" />
    <path
       style="fill:#aad400;stroke-width:0.675403"
       d="m 248.22705,283.24854 c -0.009,-0.23139 0.62853,-1.87882 1.41685,-3.66096 1.70923,-3.86399 1.53046,-10.71973 -0.37563,-14.4057 -3.10016,-5.99506 -9.65191,-11.02624 -18.28046,-14.03785 -5.016,-1.75072 -6.15348,-1.88587 -15.87197,-1.88587 -9.69833,0 -10.86093,0.13741 -15.79778,1.86712 -2.93097,1.02692 -6.66785,2.65173 -8.30419,3.61069 -1.63635,0.95896 -3.08714,1.63065 -3.224,1.49265 -0.57269,-0.57748 -1.67909,-11.03538 -2.09872,-19.83759 -0.5825,-12.21822 0.47858,-22.82797 3.10211,-31.0181 9.95023,-31.06257 48.5746,-74.30414 113.9799,-127.605194 l 8.97287,-7.312311 1.83357,1.186714 c 2.38603,1.544271 22.57131,17.637415 29.52509,23.539503 17.34461,14.721398 38.09809,35.612748 48.69341,49.016888 21.4131,27.0897 26.14918,47.75421 13.78763,60.15833 -4.29814,4.31293 -11.37705,8.32349 -18.91755,10.71773 -3.52898,1.12051 -13.86264,3.422 -22.9637,5.11443 -31.07404,5.7785 -45.75505,10.58196 -66.18949,21.65645 -16.89857,9.15822 -32.01474,21.65608 -46.09292,38.10905 -1.7482,2.04309 -3.18595,3.5254 -3.19502,3.29402 z m 5.076,-34.72994 c 15.72741,-4.07415 15.72741,-18.15479 0,-22.22893 -13.97009,-3.61892 -28.73934,2.16446 -28.72905,11.24977 0.01,8.79021 15.0262,14.52885 28.72905,10.97916 z m 17.87555,-25.97554 c 7.74752,-3.95248 4.0058,-12.83045 -5.40754,-12.83045 -5.52812,0 -9.45564,2.94564 -9.45564,7.09173 0,5.88996 8.29151,9.09134 14.86318,5.73872 z"
       id="path2430"
       transform="matrix(0.594,0,0,0.594,-43.5,0)" />
    <path
       style="fill:#aad400;stroke-width:0.675403"
       d="m 261.71864,222.74539 c -0.55721,-0.20276 -1.84892,-1.14742 -2.87046,-2.09925 -4.56098,-4.24973 -0.50611,-10.25812 6.92288,-10.25812 9.27213,0 12.11028,8.03262 4.26567,12.07285 -1.50816,0.77675 -6.49644,0.94737 -8.31809,0.28452 z"
       id="path2469"
       transform="matrix(0.594,0,0,0.594,-43.5,0)" />
    <path
       style="fill:#aad400;stroke-width:0.675403"
       d="m 248.58903,282.31843 c 0.26339,-0.74294 0.92424,-2.56653 1.46855,-4.05242 1.42852,-3.89968 0.79723,-10.3086 -1.38165,-14.02658 -3.45726,-5.89936 -10.71387,-11.00184 -19.37663,-13.62466 -2.0431,-0.61859 -6.906,-1.2961 -10.80645,-1.5056 -9.66872,-0.51932 -17.28253,0.85309 -24.83347,4.47629 -3.16462,1.51849 -5.86332,2.65143 -5.9971,2.51765 -0.51852,-0.51851 -1.53345,-10.68799 -1.96731,-19.71208 -1.117,-23.23284 2.87809,-36.93674 16.93335,-58.08465 18.25754,-27.47076 52.25392,-61.60959 100.14101,-100.560619 l 8.96904,-7.29536 1.8374,1.189226 c 2.39555,1.550473 22.58801,17.650295 29.52892,23.543956 16.9665,14.406567 37.39321,34.851947 47.97406,48.017887 5.8453,7.27342 12.8628,18.03085 15.75752,24.1554 4.44347,9.40134 5.16011,12.1915 5.15421,20.06745 -0.006,8.50264 -1.31783,11.86105 -6.72551,17.22277 -7.49122,7.42756 -16.59844,10.90951 -39.87198,15.24421 -17.64695,3.28674 -21.28499,4.08535 -31.06853,6.82004 -19.65597,5.49421 -40.05565,15.5499 -56.2719,27.7383 -6.34119,4.76614 -20.54336,18.3115 -26.74161,25.50488 -1.76046,2.04309 -2.98532,3.10685 -2.72192,2.36391 z m 8.33252,-35.14423 c 7.465,-3.35009 10.16631,-9.26335 6.65445,-14.56686 -0.99426,-1.50149 -3.14871,-3.11223 -6.23147,-4.65885 -4.57069,-2.29311 -4.9454,-2.36391 -12.51096,-2.36391 -7.56556,0 -7.94028,0.0708 -12.51097,2.36391 -5.40965,2.71402 -7.75112,5.57039 -7.75112,9.45564 0,7.29619 9.1159,12.31884 21.61975,11.91199 5.3313,-0.17346 7.15536,-0.53757 10.73032,-2.14192 z m 13.77972,-24.36415 c 4.23682,-2.12872 5.7826,-6.2742 3.5357,-9.48209 -3.27847,-4.68068 -13.65335,-4.68068 -16.93183,0 -1.34168,1.91552 -1.24772,5.38388 0.19223,7.09602 2.85305,3.39233 8.99285,4.50185 13.2039,2.38607 z"
       id="path2508"
       transform="matrix(0.594,0,0,0.594,-43.5,0)" />
    <path
       style="fill:#aad400;stroke-width:0.675403"
       d="m 237.14138,248.13378 c -4.06345,-0.95375 -9.08688,-3.98235 -10.56065,-6.36697 -3.12702,-5.05962 -1.01935,-9.85689 5.80711,-13.21755 3.91327,-1.92649 5.40099,-2.27321 10.75977,-2.50758 21.48353,-0.93962 29.6155,15.13271 10.9245,21.59157 -3.81518,1.31837 -12.36892,1.57125 -16.93073,0.50053 z"
       id="path2547"
       transform="matrix(0.594,0,0,0.594,-43.5,0)" />
    <path
       style="fill:#aad400;stroke-width:0.675403"
       d="m 201.94548,294.69728 c -2.97177,-0.76315 -5.46856,-1.44382 -5.54841,-1.5126 -0.761,-0.65543 -6.29314,-22.42851 -8.60684,-33.87429 -0.41252,-2.04075 -0.33283,-2.11129 5.53668,-4.90063 7.31389,-3.47574 13.40668,-4.82492 21.78893,-4.82492 19.83295,0 35.12095,10.13279 35.12095,23.27795 0,10.10412 -9.89763,19.29411 -23.99618,22.28057 -6.83579,1.448 -17.69594,1.2486 -24.29513,-0.44608 z"
       id="path2586"
       transform="matrix(0.594,0,0,0.594,-43.5,0)" />
    <path
       style="fill:#aad400;stroke-width:0.119396"
       d="m 211.68822,295.96345 c -0.26267,-0.0207 -1.22977,-0.0953 -2.14912,-0.16591 -3.38762,-0.26014 -5.79363,-0.68265 -9.54842,-1.67676 -3.78243,-1.00142 -3.51846,-0.89881 -3.7676,-1.46452 -1.33436,-3.02983 -8.47366,-32.02277 -8.47366,-34.41183 0,-0.87726 0.52759,-1.2745 3.87981,-2.92129 4.19778,-2.06218 6.42444,-2.96475 9.55219,-3.87197 4.86326,-1.41061 10.41379,-2.00643 16.22253,-1.74138 5.24527,0.23934 9.49484,0.98913 13.85355,2.44433 13.57545,4.53229 20.98304,14.42787 18.40577,24.58774 -1.85286,7.30421 -8.96176,13.78992 -18.65727,17.02171 -3.80397,1.26798 -6.98302,1.86688 -11.43564,2.15436 -1.722,0.11118 -6.6826,0.13983 -7.88214,0.0455 z"
       id="path2696"
       transform="matrix(0.594,0,0,0.594,-43.5,0)" />
    <path
       style="fill:#aad400;stroke-width:0.119396"
       d="m 210.67336,295.90724 c -3.82788,-0.25603 -6.84305,-0.76537 -10.86499,-1.83538 -3.50586,-0.93271 -3.32265,-0.86849 -3.50924,-1.23011 -1.10732,-2.14601 -8.22464,-30.78235 -8.51143,-34.24549 l -0.0704,-0.85016 0.52296,-0.50751 c 0.80181,-0.77813 6.41425,-3.50012 9.89658,-4.79976 4.30281,-1.60586 8.74183,-2.46251 14.13586,-2.72797 6.63403,-0.32649 13.23203,0.52264 18.98481,2.44326 13.57154,4.53098 20.98355,14.42584 18.4089,24.57541 -2.21482,8.73108 -11.80801,16.09117 -24.0686,18.46593 -3.86738,0.74907 -9.99646,1.04138 -14.92444,0.71178 z"
       id="path2735"
       transform="matrix(0.594,0,0,0.594,-43.5,0)" />
    <path
       style="fill:#aad400;stroke-width:0.119396"
       d="m 210.67336,295.91782 c -3.89777,-0.27519 -6.83812,-0.77383 -10.83265,-1.83704 -3.55367,-0.94588 -3.35401,-0.87559 -3.54694,-1.24868 -1.11075,-2.14795 -8.23847,-30.82583 -8.50898,-34.23527 l -0.0674,-0.8496 0.46897,-0.46897 c 1.06859,-1.06859 8.26306,-4.3839 12.0996,-5.57566 6.21007,-1.92906 13.92117,-2.54514 21.20383,-1.6941 15.80268,1.84668 27.26985,10.23481 28.57165,20.89989 0.95493,7.82329 -4.06452,15.49425 -13.39898,20.47698 -4.18075,2.23169 -9.35377,3.75738 -14.79046,4.36218 -2.01848,0.22454 -8.93939,0.32977 -11.19863,0.17027 z"
       id="path2774"
       transform="matrix(0.594,0,0,0.594,-43.5,0)" />
    <path
       style="fill:#aad400;stroke-width:0.119396"
       d=""
       id="path2813"
       transform="matrix(0.594,0,0,0.594,-43.5,0)" />
    <path
       style="fill:#aad400;stroke-width:0.119396"
       d="m 211.44943,295.97028 c -4.98984,-0.36813 -7.28327,-0.73557 -11.40227,-1.82678 -3.552,-0.941 -3.56403,-0.94521 -3.75513,-1.31476 -1.1155,-2.15714 -8.28317,-30.99535 -8.51308,-34.25128 l -0.0614,-0.86897 0.47695,-0.4537 c 0.767,-0.72963 5.65719,-3.14304 9.10652,-4.49426 4.04878,-1.58605 8.13737,-2.5277 12.77532,-2.94234 2.33844,-0.20906 7.87854,-0.17612 10.24046,0.0609 7.16279,0.71872 13.34854,2.61381 18.43218,5.64695 6.18339,3.6893 10.03194,8.6268 11.16399,14.32285 0.29292,1.47384 0.29353,4.50484 0.001,5.89504 -1.8425,8.76192 -10.27051,15.98595 -22.1407,18.97778 -3.57141,0.90016 -6.40558,1.20486 -11.66765,1.25441 -2.2327,0.021 -4.32809,0.0184 -4.65643,-0.006 z"
       id="path2852"
       transform="matrix(0.594,0,0,0.594,-43.5,0)" />
    <path
       style="fill:#aad400;stroke-width:0.119396"
       d="m 210.61366,295.92275 c -3.85118,-0.29309 -6.32993,-0.69574 -9.90982,-1.60976 -4.32307,-1.10378 -4.22014,-1.06538 -4.48972,-1.67481 -1.3331,-3.01368 -8.4647,-31.94506 -8.4647,-34.33946 0,-0.57009 0.0394,-0.65796 0.48451,-1.08141 0.50625,-0.48158 5.02861,-2.79082 7.53343,-3.84676 5.50984,-2.32276 10.14726,-3.35153 16.52477,-3.66587 6.73753,-0.33208 13.40722,0.54354 19.21574,2.52272 5.40838,1.84283 9.50317,4.28538 12.89472,7.6917 2.95456,2.96744 4.67249,6.00895 5.45254,9.65344 0.34887,1.62995 0.37834,4.66349 0.0599,6.17137 -0.46396,2.1973 -1.37407,4.4276 -2.55788,6.26826 -4.73544,7.36295 -14.27535,12.50985 -25.46066,13.73633 -2.00571,0.21993 -9.21891,0.33133 -11.28288,0.17425 z"
       id="path2891"
       transform="matrix(0.594,0,0,0.594,-43.5,0)" />
    <path
       style="fill:#aad400;stroke-width:0.119396"
       d="m 210.55396,295.91406 c -3.75979,-0.27918 -6.39258,-0.70713 -9.90394,-1.60983 -4.27717,-1.09958 -4.16702,-1.05821 -4.4359,-1.66605 -1.3761,-3.11091 -8.4647,-31.91436 -8.4647,-34.39504 0,-0.59131 0.0302,-0.65485 0.50743,-1.0673 0.6354,-0.54916 6.08625,-3.24913 8.50693,-4.21374 5.17836,-2.06352 9.41889,-2.95287 15.56155,-3.26369 8.82879,-0.44674 17.49532,1.22331 24.36388,4.69495 7.25946,3.66921 11.90944,9.07796 13.22311,15.38077 0.30052,1.44187 0.29679,4.56311 -0.007,6.02947 -1.60043,7.71985 -8.52395,14.39151 -18.51474,17.8412 -5.10159,1.76152 -9.68519,2.41867 -16.59583,2.37935 -1.64282,-0.009 -3.55108,-0.0589 -4.24059,-0.11009 z"
       id="path2930"
       transform="matrix(0.594,0,0,0.594,-43.5,0)" />
    <path
       style="fill:#aad400;stroke-width:0.594"
       id="path3109"
       d="m 78.963382,147.66377 c 0.419875,0.87227 0.756489,1.78239 1.206949,2.6397 1.023165,1.77315 1.14734,0.84266 4.874269,0.67941 0.07891,-0.004 0.121496,-0.48361 0.125031,-0.51112 -0.0114,-0.0961 -0.007,-0.1955 -0.03421,-0.28844 -0.252004,-0.86261 -1.230055,-1.22513 -1.971539,-1.53965 -0.485435,-0.18169 -0.387953,-0.14742 -0.804591,-0.29665 -0.06342,-0.0227 -0.128185,-0.0419 -0.19049,-0.0675 -0.02744,-0.0113 -0.04829,-0.0434 -0.07793,-0.0428 -1.478371,0.0248 -2.966317,-0.0596 -4.43415,0.11835 -0.137879,0.0167 0.01847,0.27716 0.02774,0.41574 0.109604,0.17606 0.277778,0.26337 0.45302,0.35971 0,0 4.327284,-0.50519 4.327284,-0.50519 v 0 c -0.114197,-0.0341 -0.22531,-0.0827 -0.342186,-0.1026 -0.212497,1.74705 0.06283,0.3398 -4.38426,0.38193 -0.05417,5.2e-4 0.10531,-0.0306 0.159489,-0.0314 0.422631,-0.006 0.837896,0.14768 1.238923,0.25291 0.479061,0.17728 0.967917,0.34374 1.364977,0.67995 0.10749,0.091 0.258621,0.2615 0.301342,0.41112 0.01307,0.0458 -2.68e-4,0.0953 -3.98e-4,0.14292 -0.01711,0.0219 -0.0237,0.0631 -0.05138,0.0657 -0.03017,0.003 -0.103445,-0.0542 -0.07314,-0.054 1.416719,0.0135 2.832916,0.0609 4.249321,0.0936 0.05388,0.001 -0.112913,0.0239 -0.161669,0.001 -0.09135,-0.043 -0.346355,-0.34585 -0.392664,-0.39763 -0.07606,-0.10388 -0.157012,-0.20434 -0.228179,-0.31162 -0.346462,-0.52228 -0.677564,-1.20187 -0.793732,-1.81957 -0.02198,-0.117 -0.02037,-0.23723 -0.03053,-0.35584 0,0 -4.357239,0.082 -4.357239,0.082 z" />
    <path
       style="fill:#aad400;stroke-width:0.594"
       id="path3113"
       d="m 68.01851,148.86056 c -0.06001,0.38875 -0.148951,0.77313 -0.213073,1.16145 -0.05405,0.39208 -0.0786,0.78789 -0.05358,1.18304 0.02738,0.2232 0.04318,0.44748 0.106035,0.66409 0.06131,0.17705 0.150026,0.3411 0.235236,0.5072 0.08021,0.13831 0.152076,0.29493 0.267923,0.40778 0.07561,0.0595 0.09865,0.16033 0.178682,0.21735 0.07485,0.10618 0.121484,0.24144 0.157415,0.3667 0.06134,0.22148 0.144004,0.43595 0.223529,0.65131 0.112741,0.31369 0.238413,0.62258 0.349272,0.93691 0.100463,0.36774 0.256786,0.71693 0.40724,1.06631 0.271238,0.59551 0.519097,1.2011 0.774006,1.80369 0.04948,0.12103 0.09652,0.24307 0.148405,0.36309 0.07992,0.18488 0.310709,0.6772 0.387864,0.85448 0.18313,0.42079 0.345043,0.85082 0.512218,1.27808 0.12569,0.32317 0.244526,0.64847 0.349308,0.979 0.02417,0.0763 0.04918,0.15235 0.07125,0.22927 0.01586,0.0552 -0.01491,0.16668 0.04253,0.16696 1.487881,0.007 2.974236,-0.0967 4.46135,-0.14496 0,0 -4.383833,-0.25714 -4.383833,-0.25714 v 0 c 1.437154,0.027 2.874301,0.0539 4.311454,0.0809 -0.04039,-0.005 -0.0923,0.0128 -0.121259,-0.0159 -0.05839,-0.0579 -0.07894,-0.14435 -0.115016,-0.21824 -0.158164,-0.3239 -0.291589,-0.65965 -0.447448,-0.98463 -0.36215,-0.81838 -0.704116,-1.64589 -1.000314,-2.4907 -0.224788,-0.60277 -0.465958,-1.19962 -0.677047,-1.8073 -0.0716,-0.19707 -0.133775,-0.3952 -0.198569,-0.59442 -0.01687,-0.0519 -0.03594,-0.10295 -0.05394,-0.15442 -0.01859,-0.044 -0.04003,-0.0868 -0.05572,-0.1319 -0.01913,-0.0551 -0.03237,-0.11216 -0.04853,-0.16824 -0.105061,-0.30647 -0.221609,-0.60892 -0.324805,-0.91609 -0.04877,-0.21748 -0.125726,-0.42455 -0.192212,-0.63631 -0.0376,-0.16452 -0.07739,-0.32773 -0.130882,-0.48739 -0.01354,-0.0363 -0.02994,-0.0943 -0.05851,-0.12522 -0.0081,-0.009 -0.02435,-0.007 -0.03214,-0.0163 -0.0142,-0.0168 -0.018,-0.0405 -0.03107,-0.0583 -0.08773,-0.11897 0.03493,0.11678 -0.06843,-0.10384 -0.134404,-0.1765 0.04057,0.039 -0.0874,-0.082 -0.01853,-0.0175 -0.02911,-0.0422 -0.04693,-0.0604 -0.01521,-0.0156 -0.03671,-0.0242 -0.05144,-0.0403 -0.01978,-0.0216 -0.03404,-0.0476 -0.05108,-0.0714 -0.01764,-0.0184 -0.03528,-0.0368 -0.05293,-0.0552 -0.08305,-0.14495 -0.161033,-0.29727 -0.216828,-0.45424 -0.09804,-0.16798 -0.11716,-0.36336 -0.15593,-0.55095 -0.06797,-0.35173 -0.04407,-0.70869 0.0061,-1.06177 0.05887,-0.38244 0.129973,-0.76493 0.32247,-1.10643 0,0 -4.443381,-0.12369 -4.443381,-0.12369 z" />
    <path
       style="fill:#aad400;stroke-width:0.594"
       id="path3115"
       d="m 71.917776,145.96034 c -0.07846,0.58075 -0.261717,1.14256 -0.392141,1.71322 -0.09334,0.46424 -0.153074,0.93505 -0.158889,1.40898 -0.0018,0.13758 0.01271,0.7044 0.01574,0.83647 0.0234,0.66311 -0.0048,1.32614 -0.03178,1.9886 -0.02447,0.43324 0.01455,0.86887 0.07355,1.29795 0.100018,0.56059 0.26768,1.10305 0.436073,1.64552 0.05138,0.16765 0.09489,0.3374 0.134547,0.50812 0,0 4.404237,-0.20358 4.404237,-0.20358 v 0 c -0.114886,-0.12725 -0.180713,-0.2772 -0.239038,-0.43861 -0.172087,-0.51569 -0.377255,-1.01132 -0.425411,-1.56018 -0.03641,-0.41835 -0.03326,-0.83792 -0.06099,-1.25676 -0.0499,-0.6602 -0.113287,-1.32042 -0.107941,-1.9833 0.0092,-0.71895 0.05097,-1.44037 0.20136,-2.14545 0.138022,-0.57281 0.285868,-1.15239 0.579863,-1.66842 0,0 -4.429179,-0.14256 -4.42918,-0.14256 z" />
    <path
       style="fill:#aad400;stroke-width:0.594"
       id="path3117"
       d="m 75.853751,150.85887 c 0.420029,-0.23338 0.888047,-0.3486 1.349805,-0.46686 0.567894,-0.12991 1.119114,-0.32235 1.685933,-0.45625 0.212966,-0.0299 0.420159,-0.0899 0.630822,-0.13084 0.07144,-0.0139 0.144342,-0.0198 0.215503,-0.0352 0.07545,-0.0162 0.149201,-0.0396 0.223801,-0.0593 0.07699,-0.0157 0.153995,-0.0315 0.230989,-0.0472 0.541205,-0.0941 1.053322,-0.29586 1.58048,-0.4428 0.295223,-0.0686 0.565761,-0.21288 0.859779,-0.28425 0.137297,-0.0333 0.227015,-0.0423 0.366189,-0.0617 0.425037,-0.04 0.852331,-0.0181 1.277664,-0.0484 0.351191,-0.0403 0.697125,-0.11203 1.043118,-0.18313 0.02625,-0.008 0.05251,-0.0164 0.07878,-0.0247 0,0 -4.403916,-0.58272 -4.403916,-0.58272 v 0 c -0.0161,0.003 -0.03213,0.005 -0.04817,0.008 -0.31131,0.0692 -0.626468,0.11996 -0.946219,0.12548 -0.440219,0.01 -0.885856,0.01 -1.316666,0.11228 -0.393228,0.10978 -0.766943,0.27499 -1.158544,0.39061 -0.528327,0.16567 -1.062612,0.30638 -1.607928,0.40513 -0.435782,0.0959 -0.877433,0.1685 -1.306087,0.29469 -0.533323,0.16042 -1.062779,0.33445 -1.603871,0.46775 -0.541639,0.15314 -1.112473,0.29842 -1.576239,0.63033 0,0 4.424801,0.38863 4.424801,0.38863 z" />
    <path
       style="fill:#aad400;stroke-width:0.594"
       id="path3119"
       d="m 75.80389,149.97609 c 0.502827,-0.16949 1.034766,-0.23318 1.560438,-0.28597 0.41324,-0.057 0.830739,-0.0656 1.245915,-0.0983 0.425334,-0.0335 0.849575,-0.0813 1.275075,-0.11447 0.508232,-0.0567 1.020391,-0.079 1.528284,-0.13847 0.229498,-0.0269 0.457315,-0.0666 0.686296,-0.0976 0.651381,-0.0998 1.297563,-0.22815 1.947601,-0.33601 0.583997,-0.1165 1.177885,-0.16955 1.770239,-0.22267 0.49874,-0.0509 0.994332,-0.12018 1.488796,-0.20173 0.319358,-0.0571 0.638289,-0.11625 0.96092,-0.15445 1.64974,-0.10698 4.598807,-0.0527 -2.783294,-0.0399 0.390561,-0.001 0.77852,0.0362 1.165939,0.0805 0.336631,0.0406 0.675574,0.0497 1.013684,0.0727 0.58885,0.0329 1.176607,0.083 1.763028,0.14543 0.576679,0.0421 1.129544,0.20181 1.677064,0.37668 0.531511,0.18855 1.043058,0.43163 1.542071,0.69343 0.457689,0.26531 0.912569,0.53362 1.384412,0.77343 0.517143,0.25369 1.039304,0.49748 1.563195,0.73688 0.526212,0.22283 1.053886,0.44144 1.571112,0.68468 0.559661,0.23037 1.107329,0.48143 1.620539,0.80321 0.372473,0.24427 0.685351,0.55692 0.974225,0.89281 0.306121,0.38368 0.575051,0.79747 0.829691,1.21683 0.21059,0.32911 0.35795,0.68906 0.50872,1.04749 0.17602,0.41139 0.31021,0.83836 0.45188,1.26224 0.0963,0.33634 0.22879,0.6604 0.31754,0.99882 0.0782,0.34151 0.0948,0.69247 0.13468,1.03965 0.041,0.40595 0.0782,0.81212 0.12379,1.2176 0.0488,0.36778 0.10242,0.73354 0.12678,1.10416 0.0352,0.356 -0.0191,0.70007 -0.13556,1.03565 -0.0929,0.23516 -0.21117,0.46091 -0.33149,0.68363 -0.14774,0.31067 -0.3095,0.61448 -0.46951,0.91982 -0.14825,0.29374 -0.30437,0.58285 -0.46282,0.87104 -0.0887,0.21669 -0.24171,0.39265 -0.35096,0.59758 -0.19228,0.33241 -0.40344,0.65127 -0.582967,0.99124 -0.02447,0.0547 -0.04782,0.10993 -0.07341,0.16411 -0.02329,0.0493 -0.05174,0.0961 -0.07332,0.14619 -0.08192,0.18995 -0.131767,0.3925 -0.209319,0.58426 -0.04835,0.14774 -0.103612,0.29866 -0.183451,0.43301 -0.02762,0.0465 -0.06395,0.0875 -0.09237,0.13351 -0.09384,0.19564 -0.222536,0.37402 -0.349373,0.54972 -0.111494,0.13795 -0.190953,0.2971 -0.286807,0.44468 -0.02726,0.042 -0.103546,0.12733 -0.135836,0.16459 -0.101645,0.12545 -0.172688,0.27341 -0.280535,0.39431 -0.02489,0.0279 -0.05382,0.052 -0.08069,0.0779 -0.02816,0.0329 -0.05631,0.0659 -0.08446,0.0988 -0.02881,0.0319 -0.05595,0.0655 -0.08644,0.0958 -0.144271,0.14357 -0.03974,0.0169 -0.189154,0.17247 -0.129123,0.13451 -0.245197,0.28314 -0.371024,0.4209 -0.04087,0.0431 -0.266213,0.28186 -0.308886,0.32178 -0.05221,0.0488 -0.111315,0.09 -0.163837,0.13852 -0.155877,0.14402 -0.306569,0.29472 -0.462334,0.43928 -0.157612,0.13768 -0.33656,0.25018 -0.49852,0.38173 -0.273525,0.22217 0.06401,-0.0206 -0.211785,0.17165 -0.279447,0.15615 -0.544217,0.33593 -0.819138,0.4991 -0.343938,0.17851 -0.674641,0.38062 -1.003432,0.58525 -0.397879,0.19822 -0.783664,0.41628 -1.186456,0.60459 -0.341972,0.17999 -0.712503,0.29544 -1.054564,0.47409 -0.64623,0.38046 -1.332051,0.69417 -2.021304,0.9882 -0.610306,0.28757 -1.247086,0.51035 -1.873999,0.7572 -0.40594,0.16927 -0.712966,0.49333 -1.077962,0.72891 -0.162886,0.0736 -0.08772,0.039 -0.22572,0.10355 0,0 4.400317,0.44715 4.400317,0.44715 v 0 c 0.09597,-0.0829 0.04146,-0.0353 0.163011,-0.14342 0.315497,-0.26642 0.659002,-0.48638 1.049289,-0.6281 0.556424,-0.24919 1.095384,-0.53315 1.649152,-0.78802 0.756198,-0.33015 1.520735,-0.63979 2.275145,-0.97388 0.341936,-0.14566 0.671214,-0.31564 1.002411,-0.48402 0.4146,-0.20848 0.833322,-0.41184 1.234599,-0.64475 0.327656,-0.2029 0.666135,-0.38727 0.999708,-0.58006 0.288921,-0.17702 0.594332,-0.32971 0.857591,-0.54567 0.22955,-0.19332 0.46445,-0.38085 0.66974,-0.6012 0.31282,-0.30283 0.62529,-0.60599 0.92709,-0.91991 0.23781,-0.2344 0.4986,-0.44602 0.70973,-0.70613 0.16784,-0.1886 0.30195,-0.40197 0.4579,-0.60012 0.13837,-0.20455 0.25683,-0.42217 0.40307,-0.62165 0.14001,-0.19471 0.29164,-0.38412 0.39775,-0.60013 0.1,-0.20468 0.16934,-0.42265 0.23929,-0.63896 0.0903,-0.28636 0.17978,-0.57255 0.32883,-0.83556 0.1715,-0.33376 0.37,-0.6529 0.59782,-0.95152 0.14986,-0.19748 0.27569,-0.40335 0.35894,-0.63842 0.13974,-0.2923 0.28609,-0.58137 0.43339,-0.86992 0.15963,-0.30681 0.32534,-0.61036 0.49421,-0.91215 0.13526,-0.24957 0.27518,-0.50421 0.3331,-0.78459 0.0814,-0.38631 0.12138,-0.78079 0.0897,-1.1757 -0.0168,-0.38157 -0.034,-0.76387 -0.0951,-1.14152 -0.0667,-0.3958 -0.14914,-0.7899 -0.14439,-1.19386 -0.0214,-0.37143 -0.0402,-0.74592 -0.1225,-1.10986 -0.0433,-0.17849 -0.081,-0.36406 -0.14236,-0.53748 -0.0602,-0.17029 -0.15581,-0.32827 -0.20174,-0.50429 -0.16363,-0.419 -0.29304,-0.84912 -0.44175,-1.27339 -0.14145,-0.39275 -0.3052,-0.77601 -0.53778,-1.12515 -0.27069,-0.42948 -0.5547,-0.85018 -0.83762,-1.27168 -0.2946,-0.38324 -0.59796,-0.75764 -1.00616,-1.02662 -0.5154,-0.34058 -1.06528,-0.6213 -1.63505,-0.86014 -0.33931,-0.1574 -0.17062,-0.0756 -0.50603,-0.24542 -0.34709,-0.16104 -0.70917,-0.28722 -1.057339,-0.4456 -0.250638,-0.1119 -0.497991,-0.23207 -0.749865,-0.34108 -0.279168,-0.12082 -0.565773,-0.2261 -0.831808,-0.37574 -0.467205,-0.23231 -0.913566,-0.50338 -1.366224,-0.76253 -0.504906,-0.28127 -1.029645,-0.51943 -1.552383,-0.76508 -0.548726,-0.19692 0.01847,0.001 -0.545666,-0.17919 -0.381913,-0.12214 -0.762643,-0.24376 -1.163545,-0.29017 -0.566825,-0.0563 -1.133121,-0.11739 -1.700088,-0.1717 -0.326534,-0.0192 -0.649901,-0.061 -0.977356,-0.0646 -0.40885,-0.0313 -0.814142,-0.0951 -1.224596,-0.10492 -1.893215,-6e-4 -3.877228,-0.11893 -5.791149,0.0851 -0.319543,0.0504 -0.637582,0.10591 -0.955028,0.16826 -0.471202,0.0819 -0.94724,0.13063 -1.42257,0.18168 -0.582744,0.0642 -1.163195,0.14021 -1.738395,0.25592 -0.646599,0.10934 -1.289681,0.24046 -1.940604,0.32333 -0.717676,0.0966 -1.439173,0.15716 -2.160205,0.22286 -0.850216,0.0778 -1.701632,0.13874 -2.551438,0.2206 -0.594862,0.0755 -1.183724,0.18121 -1.766366,0.32394 0,0 4.382086,0.57493 4.382086,0.57493 z" />
    <path
       style="fill:#aad400;stroke-width:0.594"
       id="path3121"
       d="m 101.67462,161.61177 c 0.20446,0.42797 0.25342,0.90433 0.27803,1.37187 0.007,0.26991 -0.0144,0.53978 -0.14304,0.78084 -0.15716,0.27568 -0.2985,0.55936 -0.49366,0.8105 -0.19702,0.28124 -0.40391,0.55703 -0.56206,0.86243 -0.084,0.19733 -0.1667,0.39697 -0.19897,0.60991 -0.0306,0.19836 -0.0307,0.39829 -0.0102,0.59741 0.004,0.15089 0.0867,0.27431 0.14051,0.40887 10e-4,0.0179 0.006,0.0602 -0.005,0.0775 -0.007,0.0112 -0.0224,0.0143 -0.0317,0.0237 -0.0681,0.0687 -0.12949,0.14595 -0.19655,0.21607 -0.1911,0.19171 0.0315,-0.0227 -0.15839,0.13516 -0.0262,0.0217 -0.047,0.0496 -0.0735,0.071 -0.0207,0.0168 -0.047,0.026 -0.0675,0.0431 -0.0179,0.015 -0.0951,0.10285 -0.11214,0.12197 -0.0191,0.005 -0.04,0.005 -0.05721,0.015 -0.02269,0.0128 -0.03742,0.0368 -0.05948,0.0507 -0.02085,0.0131 -0.0455,0.0186 -0.06782,0.029 -0.123481,0.0576 -0.186237,0.0862 -0.32354,0.11488 -0.120558,0.022 -0.345589,0.12227 -0.465001,0.11478 -0.04639,-0.003 -0.177665,-0.0468 -0.131197,-0.0472 4.024958,-0.0282 5.597378,0.29964 4.090338,-0.007 0,0 -4.359723,0.48044 -4.359723,0.48044 v 0 c 1.395543,1.12256 3.597683,0.57417 5.209663,-0.006 0.21293,-0.10342 0.43635,-0.21231 0.58699,-0.40051 0.13792,-0.12505 0.26785,-0.25733 0.38202,-0.40537 0.15727,-0.20502 0.30601,-0.42592 0.28044,-0.6974 -0.0172,-0.15089 -0.063,-0.27523 -0.155,-0.39456 -0.0241,-0.15289 -0.0194,-0.30456 0.01,-0.45708 0.0419,-0.16361 0.0894,-0.32739 0.16187,-0.48034 0.1532,-0.28094 0.32179,-0.55149 0.51428,-0.80783 0.19426,-0.29631 0.40113,-0.59004 0.55102,-0.91147 0.10444,-0.32359 0.11661,-0.65633 0.0703,-0.99308 -0.072,-0.47249 -0.14307,-0.94714 -0.17208,-1.42429 0,0 -4.43206,0.0969 -4.43206,0.0969 z" />
    <path
       style="fill:#aad400;stroke-width:0.594"
       id="path3123"
       d="m 89.455145,147.24645 c -0.579911,0.56189 -1.339512,0.88828 -2.077195,1.18877 -0.476067,0.18745 -0.983794,0.14766 -1.483105,0.16001 -0.274036,0.007 -0.506527,0.0279 -0.779684,0.0487 -0.637671,0.0755 -1.277332,0.12878 -1.918899,0.15429 -0.337844,0.0118 -0.675937,0.01 -1.013917,0.007 7.543788,-0.1016 5.022686,0.19683 3.432513,-0.083 -0.320921,-0.0487 -0.634434,-0.13019 -0.951891,-0.19657 -0.586445,-0.16995 -1.181989,-0.30274 -1.782903,-0.40953 -0.618093,-0.10254 -1.244953,-0.13122 -1.870162,-0.15183 -1.685445,-0.042 -0.965327,-0.0265 -4.717209,0.0221 -0.06557,6e-4 -0.129326,0.0217 -0.193983,0.0326 -0.157938,0.0267 -0.269628,0.0627 -0.419132,0.11327 -0.179887,0.14456 -0.389296,0.24177 -0.580445,0.36868 -0.224764,0.21377 -0.363071,0.53349 -0.439198,0.83062 -0.07753,0.34348 -0.02376,0.69543 0.0675,1.03025 0.121182,0.3593 0.274108,0.70662 0.413567,1.05904 0.245156,0.5889 0.333757,1.22238 0.457523,1.84361 0.178954,0.84378 0.384258,1.68032 0.473293,2.54034 0.02495,0.24084 0.09284,1.34839 0.108084,1.58847 0.0474,1.24364 0.213216,2.48273 0.57264,3.67681 0.07318,0.24313 0.162263,0.48117 0.243397,0.72175 0.107122,0.25637 0.209219,0.51489 0.321378,0.7691 0.209551,0.47494 0.547341,1.16431 0.766902,1.63105 0.370091,0.78674 0.72882,1.5787 1.085754,2.37146 0.424704,0.91133 0.788149,1.84896 1.186432,2.77168 0.179786,0.41652 0.363712,0.83123 0.544265,1.24741 0.547858,1.25652 1.016951,2.54516 1.571266,3.79884 0.323285,0.66159 0.691339,1.31176 1.168446,1.87641 0.227769,0.26955 0.315348,0.33929 0.562821,0.57128 0.203955,0.1718 0.419714,0.33379 0.666331,0.4399 0.17994,0.0774 0.372373,0.12279 0.562542,0.16611 0.03249,0.005 0.183219,0.026 0.223249,0.0421 0.207698,0.0837 0.180065,0.37036 0.17122,0.54698 -0.0018,0.01 -0.03778,0.25142 -0.0845,0.27426 -0.02477,0.0121 -0.0932,-0.0494 -0.06567,-0.0502 1.452829,-0.0458 2.907523,-0.0247 4.359812,-0.0852 0.05156,-0.002 -0.09315,-0.0506 -0.125026,-0.0912 -0.06265,-0.0797 -0.102102,-0.17518 -0.153151,-0.26277 -0.382625,-0.77794 -0.595621,-1.62519 -0.798217,-2.4641 -0.195836,-0.74238 -0.313335,-1.50185 -0.354113,-2.26795 -0.01313,-0.39311 -0.0078,-0.78597 -0.02132,-1.17908 -0.0024,-0.1118 -0.0087,-0.22336 -0.01164,-0.33514 0,0 -4.412671,0.0245 -4.412671,0.0245 v 0 c 0.0097,0.11646 0.01675,0.23336 0.03641,0.34873 0.05542,0.39418 0.08967,0.78982 0.13365,1.18539 0.119994,0.78202 0.288933,1.55305 0.485624,2.31944 0.104539,0.45469 0.201313,0.9134 0.324022,1.36365 0.03231,0.11864 0.208553,0.68865 0.245173,0.81122 0.03606,0.12067 0.07056,0.24178 0.105845,0.36267 0.02655,0.0977 0.05655,0.19459 0.07973,0.29318 0.02061,0.0877 -0.03837,0.25947 0.0515,0.26521 3.749061,0.23942 4.456022,1.42945 4.533064,-0.49728 0.0085,-0.34623 0.04889,-0.85488 -0.246284,-1.1081 -0.04419,-0.0379 -0.10038,-0.059 -0.150573,-0.0885 -0.46455,-0.0936 -0.943961,-0.11545 -1.35116,-0.39221 -0.291375,-0.19702 -0.370846,-0.23418 -0.635503,-0.48678 -0.530508,-0.50633 -0.937772,-1.12486 -1.298573,-1.75836 -0.299347,-0.60118 -0.314369,-0.60173 -0.569058,-1.23652 -0.340796,-0.84939 -0.612289,-1.72682 -1.004264,-2.55573 -0.623534,-1.33762 -1.218062,-2.68855 -1.857302,-4.01877 -0.747596,-1.55401 -1.534218,-3.0973 -2.103615,-4.72824 -0.181443,-0.5648 -0.273198,-0.81686 -0.415194,-1.39022 -0.235972,-0.95282 -0.364205,-1.9294 -0.435681,-2.90729 -0.03291,-0.53284 -0.07331,-1.06523 -0.102073,-1.59831 -0.01438,-0.26617 -0.01628,-0.53297 -0.0335,-0.79897 -0.03819,-0.59056 -0.124847,-1.17686 -0.170276,-1.76678 -0.05732,-0.65001 -0.120481,-1.30059 -0.314535,-1.92732 -0.103807,-0.35357 -0.22961,-0.69736 -0.374754,-1.03601 -0.07479,-0.2523 -0.123202,-0.52031 -0.04538,-0.77807 0.08691,-0.22301 0.194494,-0.41466 0.428155,-0.50841 0.18512,-0.0964 0.368845,-0.22882 0.579251,-0.25437 0.116365,-0.0261 0.235207,-0.042 0.353882,-0.0544 0.05762,-0.006 0.231262,-0.0136 0.173311,-0.0138 -1.992335,-0.009 -5.55564,-2.9e-4 -3.813486,-0.004 0.638616,0.003 1.278662,0.0117 1.913714,0.0863 0.566901,0.0769 1.132651,0.18269 1.67306,0.37521 0.06207,0.0216 0.123113,0.0464 0.186219,0.0648 0.129213,0.0375 0.179507,0.0333 0.305376,0.0684 0.146034,0.0407 0.286931,0.10172 0.44152,0.10686 0.208001,0.0375 0.414184,0.0843 0.621775,0.12244 1.510732,0.27787 3.471562,-2.23539 4.608056,0.0384 0.313169,-0.005 0.6261,-0.0157 0.938223,-0.0435 0.607454,-0.0486 1.212152,-0.12394 1.819636,-0.17193 0.765149,-0.0413 1.553156,-0.002 2.255917,-0.36121 0.783569,-0.39031 1.555538,-0.80193 2.30175,-1.26039 0,0 -4.378522,-0.40718 -4.378522,-0.40718 z" />
    <path
       style="fill:#aad400;stroke-width:0.594"
       id="path3125"
       d="m 69.216204,146.00995 c -0.100397,0.38128 -0.233198,0.76114 -0.408986,1.11499 -0.0085,0.017 -0.361283,0.6512 -0.374036,0.67413 -0.248797,0.45942 -0.485245,0.92833 -0.655253,1.42326 -0.05762,0.31122 -0.08915,0.62871 -0.115468,0.94442 -0.02709,0.2376 -0.04568,0.47186 -0.018,0.70966 0.03647,0.22908 0.04306,0.46084 0.07341,0.69071 0.02715,0.17286 0.09665,0.33298 0.157404,0.49559 0.06032,0.15186 0.09538,0.31379 0.159537,0.46381 0.05596,0.13976 0.08937,0.28742 0.141704,0.42818 0.05138,0.10764 0.06637,0.2232 0.07368,0.34076 0.02899,0.23921 0.07801,0.47444 0.135581,0.70818 0.0845,0.35102 0.218396,0.6862 0.350234,1.02131 0.259934,0.57684 0.524627,1.15222 0.792188,1.72585 0.28989,0.58051 0.581128,1.15987 0.856536,1.74746 0.341996,0.75607 0.651654,1.52546 0.908042,2.31468 0.244722,0.85552 0.541514,1.69394 0.818627,2.53916 0.247181,0.81435 0.572331,1.60029 0.888202,2.38945 0.401645,0.97874 0.748226,1.97853 1.136376,2.96252 0.571921,1.39874 1.056464,2.83063 1.555906,4.25621 0.451743,1.2928 0.938395,2.57262 1.414824,3.85629 0.232213,0.51301 0.332189,1.12755 0.683005,1.58188 0.0335,0.0434 0.07437,0.0807 0.111554,0.121 0,0 4.361955,-0.50698 4.361955,-0.50698 v 0 c -0.04562,0.004 -0.09172,0.0199 -0.136804,0.0119 -0.254648,-0.0449 -0.401556,-0.33734 -0.518764,-0.53287 -0.183979,-0.30691 -0.275675,-0.50658 -0.439958,-0.83378 -0.569509,-1.25671 -1.076132,-2.5401 -1.559232,-3.83234 -0.171903,-0.46893 -0.375628,-1.01671 -0.53697,-1.48898 -0.313388,-0.91736 -0.565625,-1.85338 -0.863688,-2.77563 -0.337802,-0.9953 -0.716001,-1.97605 -1.060569,-2.96905 -0.282388,-0.79619 -0.563088,-1.59181 -0.879649,-2.37535 -0.291814,-0.83597 -0.53934,-1.685 -0.794985,-2.5325 -0.25049,-0.80072 -0.559923,-1.58042 -0.883659,-2.35419 -0.123409,-0.32557 -0.239257,-0.65663 -0.385232,-0.97311 -0.156157,-0.33857 -0.104289,-0.19684 -0.279875,-0.52069 -0.04948,-0.0913 -0.09432,-0.185 -0.141479,-0.2775 -0.275759,-0.5462 -0.541461,-1.10024 -0.720861,-1.68672 -0.109991,-0.31848 -0.197885,-0.64216 -0.284793,-0.96738 -0.04473,-0.20921 -0.08511,-0.41695 -0.09449,-0.63146 -0.0068,-0.16469 -0.0081,-0.33197 -0.06668,-0.48852 -0.0155,-0.0355 -0.03926,-0.0671 -0.0534,-0.10315 -0.03914,-0.0999 -0.05946,-0.20978 -0.09572,-0.31077 -0.0086,-0.0267 -0.01711,-0.0535 -0.0256,-0.0802 -0.0101,-0.0162 -0.02299,-0.031 -0.03029,-0.0486 -0.04301,-0.10415 -0.06835,-0.21834 -0.106582,-0.32423 -0.02382,-0.078 -0.04413,-0.1572 -0.07717,-0.23199 -0.01812,-0.0409 -0.04806,-0.0761 -0.06492,-0.11757 -0.01,-0.0245 -0.01348,-0.0513 -0.0202,-0.0769 -0.04734,-0.21886 -0.08949,-0.43507 -0.08314,-0.66105 -0.01948,-0.20934 -0.02477,-0.41908 -0.01277,-0.62929 0.02055,-0.2873 0.04711,-0.57482 0.105477,-0.85726 0.100992,-0.46712 0.282399,-0.91207 0.494671,-1.33922 0.308417,-0.61463 0.609605,-1.23873 0.995734,-1.80907 0,0 -4.425365,-0.18519 -4.425365,-0.18519 z" />
    <path
       style="fill:#aad400;stroke-width:0.594"
       id="path3127"
       d="m 77.351664,169.4877 c 0.601039,1.22441 1.028559,2.51964 1.441864,3.81623 0.339002,1.10739 0.647507,2.22357 1.005571,3.32505 0.226807,0.62054 0.58051,1.18175 0.931267,1.73769 0.242566,0.35254 0.488695,0.70377 0.700249,1.07614 0.07667,0.13094 0.112266,0.2223 0.131612,0.37025 0,0 4.437002,-0.41606 4.437002,-0.41606 v 0 c -0.01936,0.0228 -0.02922,0.0758 -0.05815,0.0682 -0.09335,-0.0243 -0.06624,-0.22664 -0.153632,-0.24524 -0.219067,-0.39515 -0.508773,-0.7449 -0.774225,-1.10915 -0.377719,-0.51858 -0.753157,-1.04205 -1.003231,-1.63748 -0.48686,-1.08384 -1.005654,-2.15547 -1.371599,-3.28924 -0.265453,-0.81628 -0.517493,-1.63092 -0.69773,-2.47121 -0.07485,-0.34897 -0.1418,-0.71567 -0.165423,-1.07421 -0.0053,-0.0793 0.0018,-0.15893 0.003,-0.23839 0,0 -4.426221,0.0874 -4.426221,0.0874 z" />
    <path
       style="fill:#aad400;stroke-width:0.594"
       id="path3129"
       d="m 72.242795,168.28077 c 0.113971,0.68286 0.09883,1.38131 0.09472,2.0716 -0.0083,0.5236 -0.01247,1.04824 0.02881,1.57065 0.009,0.21298 0.09781,0.40242 0.170918,0.59755 0.02233,0.08 0.08266,0.13132 0.130668,0.19257 0.04562,0.0582 0.08715,0.12811 0.128167,0.19004 0.08734,0.12782 0.184253,0.25057 0.284021,0.37002 0.0871,0.12502 0.157119,0.26403 0.269492,0.36884 0.07842,0.0968 0.129546,0.21568 0.178438,0.33012 0.0572,0.14004 0.08503,0.28871 0.132384,0.43196 0.02726,0.11446 0.05679,0.2275 0.08912,0.34068 0.02929,0.13527 0.06314,0.26932 0.09376,0.4043 0.04473,0.18527 0.160719,0.33843 0.237149,0.51012 0.112563,0.24377 0.253667,0.47187 0.367573,0.71519 0.06614,0.19405 0.201598,0.39061 0.250056,0.58899 0.01319,0.054 -0.03475,0.1664 0.02085,0.16546 1.486438,-0.0249 2.968961,-0.16042 4.453438,-0.24063 -0.0036,-0.0582 -0.0071,-0.1164 -0.01063,-0.1746 0,0 -4.402705,-0.0249 -4.402705,-0.0249 v 0 c -0.0081,0.0216 -0.01616,0.0432 -0.02424,0.0648 1.470667,-0.0361 2.940894,-0.11221 4.411995,-0.10835 0.04562,1.2e-4 -0.02079,0.11919 -0.0664,0.11975 -0.04592,5.6e-4 -0.05001,-0.0772 -0.07103,-0.11807 -0.0757,-0.14712 -0.111084,-0.30995 -0.195557,-0.45291 -0.09938,-0.2425 -0.186997,-0.49036 -0.322233,-0.7163 -0.06474,-0.15145 -0.109427,-0.31123 -0.212046,-0.44332 -0.04069,-0.12465 -0.05542,-0.25949 -0.08466,-0.38691 -0.02364,-0.13012 -0.07698,-0.24581 -0.09577,-0.37666 -0.01913,-0.0651 -0.05144,-0.12429 -0.07168,-0.18767 -0.02578,-0.0808 -0.03047,-0.16881 -0.06052,-0.24873 -0.02079,-0.0792 -0.04158,-0.157 -0.08223,-0.22891 -0.01022,-0.0181 -0.02614,-0.0328 -0.03493,-0.0516 -0.02596,-0.0555 -0.03315,-0.11864 -0.06438,-0.17219 -0.07531,-0.14981 -0.195509,-0.22131 -0.281645,-0.3616 -0.02863,-0.0557 -0.04835,-0.10155 -0.08774,-0.15036 -0.01467,-0.0182 -0.03564,-0.0307 -0.04954,-0.0494 -0.04645,-0.0624 -0.06838,-0.14241 -0.143403,-0.17972 -0.02964,-0.0432 -0.05417,-0.0899 -0.08435,-0.13276 -0.01331,-0.0189 -0.03285,-0.033 -0.04497,-0.0527 -0.04081,-0.0663 -0.05192,-0.11586 -0.121111,-0.15722 -0.06112,-0.0667 -0.01616,-0.009 -0.06813,-0.1157 -0.05388,-0.11037 -0.134351,-0.20696 -0.169236,-0.32735 -0.121574,-0.49087 -0.164408,-0.99863 -0.18973,-1.50243 -0.0042,-0.6903 -0.01925,-1.38874 0.09471,-2.0716 0,0 -4.397411,0 -4.397411,0 z" />
    <path
       style="fill:#aad400;stroke-width:0.594"
       id="path3131"
       d="m 72.976486,170.32153 c -0.0084,0.0375 -0.01467,0.0755 -0.02513,0.11241 -0.02127,0.0753 -0.07904,0.22585 -0.09979,0.29587 -0.06018,0.20313 -0.102661,0.41082 -0.141313,0.61883 -0.05073,0.3255 -0.111838,0.6526 -0.09911,0.98317 0.02715,0.24736 0.113704,0.48072 0.20834,0.70881 0.07073,0.18456 0.151981,0.3653 0.246468,0.53888 0.06254,0.12697 0.130134,0.25096 0.193692,0.37785 0.07447,0.13429 0.123653,0.27747 0.173418,0.42188 0.04027,0.12351 0.09743,0.23591 0.126112,0.36304 0.03861,0.13819 0.10847,0.26373 0.170395,0.39219 0.06032,0.0987 0.09644,0.21316 0.163023,0.30819 0.04015,0.0573 0.09196,0.10544 0.136513,0.15938 0.239566,0.30461 0.475022,0.61188 0.703777,0.92473 0.147419,0.19019 0.281895,0.38978 0.416751,0.58891 0,0 4.317572,-0.27916 4.317572,-0.27916 v 0 c -0.155076,-0.18543 -0.300107,-0.37708 -0.424603,-0.58498 -0.221057,-0.29387 -0.395551,-0.62013 -0.618895,-0.91325 -3.5e-4,-5.9e-4 -0.09954,-0.18037 -0.108036,-0.19086 -0.01242,-0.0153 -0.03422,-0.0204 -0.04788,-0.0345 -0.05073,-0.0524 -0.07754,-0.12717 -0.107134,-0.1917 -0.05972,-0.10394 -0.107413,-0.21489 -0.15662,-0.32339 -0.06448,-0.10892 -0.03855,-0.26534 -0.138877,-0.36065 -0.05102,-0.15919 -0.09609,-0.32291 -0.179109,-0.4691 -0.01117,-0.0268 -0.02233,-0.0536 -0.0335,-0.0804 -0.01063,-0.0208 -0.02275,-0.0409 -0.03184,-0.0624 -0.03713,-0.0878 -0.05281,-0.18626 -0.128102,-0.25274 -0.0825,-0.17349 -0.211939,-0.32079 -0.266391,-0.50879 -0.07995,-0.1845 -0.173442,-0.365 -0.206046,-0.56585 -5.94e-4,-0.006 -0.02483,-0.19785 -0.02495,-0.20167 -0.0088,-0.22054 0.02513,-0.44326 0.05578,-0.66061 0.07323,-0.32907 0.181669,-0.64837 0.364906,-0.93422 0,0 -4.439389,-0.17985 -4.439389,-0.17985 z" />
    <path
       style="fill:#aad400;stroke-width:0.594"
       id="path3133"
       d="m 116.51257,125.3985 c 0.23249,0.48242 0.35186,1.00975 0.47739,1.52768 0.12905,0.46514 0.22466,0.93752 0.31678,1.41101 0.10142,0.38709 0.11369,0.77976 0.0956,1.17651 -0.0128,0.38033 -0.059,0.75778 -0.0884,1.13706 -0.0681,0.66512 -0.084,1.33368 -0.16239,1.99766 -0.079,0.49196 -0.14206,0.986 -0.20287,1.48046 -0.0166,0.10827 0.003,0.26881 -0.0867,0.35208 0,0 4.4528,0.11865 4.4528,0.11865 v 0 c 5.1e-4,-0.14898 0.005,-0.2979 0.002,-0.44688 -0.008,-0.48761 0.0235,-0.97427 0.062,-1.46022 0.0608,-0.66373 0.12459,-1.32721 0.24276,-1.98376 0.0757,-0.39204 0.15152,-0.78422 0.13243,-1.18597 -10e-4,-0.43007 -0.0115,-0.86199 -0.11092,-1.28281 -0.12414,-0.4732 -0.22723,-0.95189 -0.3618,-1.42232 -0.13877,-0.50602 -0.30851,-1.01131 -0.35106,-1.53681 0,0 -4.41808,0.11766 -4.41808,0.11766 z" />
    <path
       style="fill:#aad400;stroke-width:0.594"
       id="path3135"
       d="m 114.2705,122.1794 c -0.0653,0.8403 -0.10004,1.6825 -0.15306,2.52381 -0.0499,0.7104 -0.0361,1.42496 0.0467,2.13246 0.0349,0.29802 0.0854,0.56268 0.13704,0.85694 0.15151,0.68916 0.37987,1.35772 0.52879,2.04743 0.14237,0.61684 0.20261,1.24705 0.25783,1.87631 0.0583,0.58853 0.0577,1.1802 0.0233,1.7699 -0.0328,0.39905 -0.12178,0.79151 -0.21496,1.18022 -0.0549,0.26236 -0.0828,0.52929 -0.13619,0.79194 -0.0283,-0.0908 -0.0139,0.2453 -0.0615,0.19601 -0.036,-0.0373 -0.089,-0.14935 -0.0372,-0.15096 1.45575,-0.0451 2.91287,0.0112 4.36931,0.0169 0,0 -4.39566,0.18575 -4.39566,0.18575 v 0 c 5.92211,0.32263 4.17667,1.66833 4.52002,-0.16187 0.0507,-0.26288 0.0745,-0.52842 0.11428,-0.79295 0.0638,-0.41417 0.12062,-0.83017 0.13602,-1.24956 0.009,-0.60853 -0.0153,-1.21596 -0.0488,-1.82358 -0.0594,-0.64796 -0.14448,-1.29746 -0.2859,-1.9327 -0.16354,-0.68905 -0.35028,-1.3709 -0.57553,-2.04271 -0.24657,-0.9424 -0.37975,-1.89393 -0.30686,-2.87089 0.0657,-0.84284 0.15639,-1.69116 0.50263,-2.47292 0,0 -4.42029,-0.0795 -4.42029,-0.0795 z" />
    <path
       style="fill:#aad400;stroke-width:0.594"
       id="path3137"
       d="m 111.0838,121.05387 c 0.0915,0.56619 0.12221,1.14003 0.18621,1.70953 0.24365,2.16755 -0.0639,-0.769 0.16479,1.45247 0.13741,1.50966 0.30107,3.0172 0.39788,4.53016 0.0542,1.1644 0.12648,2.32755 0.2227,3.48921 0.0725,0.72302 0.14478,1.446 0.22448,2.16826 0.052,0.47204 0.0668,0.9478 0.0534,1.42232 -10e-4,0.0204 -0.008,0.24081 -0.0214,0.27859 -0.005,0.0133 -0.0247,0.0138 -0.037,0.0207 1.47997,-0.0429 2.95994,-0.0859 4.43991,-0.12887 0,0 -4.43605,0.10478 -4.43605,0.10478 v 0 c 1.49128,0.004 2.98255,0.008 4.47383,0.0121 -0.0127,-0.004 -0.0329,-5.9e-4 -0.038,-0.0132 -0.0127,-0.0312 -0.028,-0.27331 -0.0289,-0.28432 -0.0364,-0.48948 -0.0655,-0.97966 -0.13077,-1.46652 -0.1052,-0.72252 -0.2629,-1.43532 -0.365,-2.15831 -0.15453,-1.1559 -0.29088,-2.31493 -0.4107,-3.47485 -0.1348,-1.51128 -0.25692,-3.02349 -0.39247,-4.53464 -0.0745,-1.02311 -0.16262,-2.08318 0.12485,-3.08321 0,0 -4.42777,-0.0441 -4.42777,-0.0441 z" />
    <path
       style="fill:#aad400;stroke-width:0.594"
       id="path3139"
       d="m 107.79801,122.57474 c 0.44212,1.10457 0.66341,2.28533 0.85751,3.45439 0.24395,1.54544 0.29488,3.10876 0.27688,4.6702 -0.0464,1.04777 0.0765,2.08838 0.20135,3.12604 0.0751,0.78573 0.16492,1.57259 0.17873,2.36247 -0.0112,0.0413 -0.0224,0.0826 -0.0336,0.12391 0,0 4.41709,-0.11045 4.41709,-0.11045 v 0 c -0.0274,-0.0222 -0.0548,-0.0444 -0.0822,-0.0666 -0.18018,-0.77573 -0.25908,-1.57011 -0.35809,-2.35912 -0.007,-0.0542 -0.11564,-0.94073 -0.12162,-0.99758 -0.0731,-0.69597 -0.11114,-1.39547 -0.17971,-2.09187 -0.1212,-1.57101 -0.23805,-3.14292 -0.40611,-4.70972 -0.0911,-0.8507 -0.0757,-0.74678 -0.18009,-1.56892 -0.0688,-0.54172 -0.15965,-1.08844 -0.17774,-1.63546 -0.003,-0.0967 0.005,-0.19344 0.008,-0.29016 0,0 -4.40065,0.0929 -4.40065,0.0929 z" />
    <path
       style="fill:#aad400;stroke-width:0.594"
       id="path3141"
       d="m 106.87669,124.01016 c -0.065,0.96316 -0.19323,1.92133 -0.31793,2.87832 -0.14662,1.04375 -0.18531,2.09615 -0.20322,3.14838 -0.0178,0.96581 0.13238,1.92069 0.32037,2.86462 0.16572,0.80377 0.40186,1.59009 0.59289,2.38759 0.10526,0.51736 0.268,1.01966 0.41381,1.52631 0.0419,0.1345 0.0686,0.27262 0.0925,0.41117 0,0 4.41852,-0.16211 4.41852,-0.16211 v 0 c -0.0783,-0.1208 -0.13632,-0.25019 -0.18024,-0.38782 -0.1864,-0.49478 -0.35162,-0.9966 -0.5094,-1.50114 -0.24199,-0.78224 -0.48772,-1.56402 -0.68906,-2.358 -0.084,-0.39519 -0.11993,-0.53391 -0.1791,-0.93464 -0.0688,-0.46563 -0.10183,-0.92851 -0.1136,-1.39856 -0.004,-0.15053 -0.006,-0.3011 -0.01,-0.45164 -0.039,-1.03237 -0.007,-2.06596 0.091,-3.0947 0.0697,-0.6042 0.14823,-1.19798 0.31097,-1.78585 0.071,-0.25657 0.16897,-0.55147 0.29187,-0.79347 0.0304,-0.0598 0.0731,-0.11241 0.10965,-0.16861 0,0 -4.43939,-0.17985 -4.43939,-0.17985 z" />
    <path
       style="fill:#aad400;stroke-width:0.594"
       id="path3143"
       d="m 107.51741,136.36507 c 0.19982,0.19565 0.33626,0.44259 0.48505,0.67633 0.01,0.0156 0.30334,0.46449 0.31018,0.47496 0.43734,0.61188 1.02435,1.0947 1.55948,1.61756 0.26353,0.2627 0.5352,0.5204 0.73927,0.83333 0.1787,0.32442 0.29095,0.67661 0.38843,1.03214 0.10983,0.40595 0.13948,0.82573 0.14117,1.24447 -0.008,0.33928 -0.0798,0.67762 -0.23617,0.97963 -0.11621,0.20797 -0.20206,0.43325 -0.32174,0.63925 -0.0108,0.0186 -0.18815,0.28346 -0.19987,0.30101 -0.0945,0.12199 -0.16045,0.26917 -0.25638,0.38984 -0.0684,0.086 -0.0903,0.0751 -0.17196,0.14284 -0.0325,0.027 -0.0614,0.058 -0.0921,0.087 -0.28225,0.27662 -0.65012,0.44779 -1.00215,0.61827 -0.32796,0.18166 -0.67977,0.30961 -1.02365,0.45608 -0.38013,0.14617 -0.77194,0.25808 -1.15973,0.38138 -0.35189,0.11769 -0.71879,0.17288 -1.07366,0.27825 -0.36702,0.0448 -0.72162,0.14952 -1.08314,0.22129 -0.0701,0.0152 -0.14048,0.0295 -0.21046,0.0455 -0.19284,0.044 -0.23821,0.0614 -0.4309,0.0969 -0.18817,0.0347 -0.37811,0.0535 -0.56637,0.0879 -0.32617,0.0444 -0.65279,0.073 -0.97757,0.12851 -0.51633,0.10015 -1.03278,0.19844 -1.55221,0.28137 -0.34942,0.0369 -0.68483,0.14362 -1.024495,0.22877 -2.203841,0.43871 3.048695,-1.47713 3.923215,0.2438 0.0237,-0.0505 0.0474,-0.1011 0.0711,-0.15166 0,0 -4.325136,-0.20612 -4.325136,-0.20612 v 0 c -0.04342,0.0796 -0.08688,0.1593 -0.130317,0.23895 -0.02186,0.0991 -0.166207,0.28426 -0.06557,0.29725 2.451463,0.31647 3.230813,0.60845 4.877203,0.15747 0.30891,-0.0778 0.61409,-0.16738 0.93135,-0.20879 0.53171,-0.0996 1.06454,-0.19714 1.60204,-0.26001 0.33095,-0.0367 0.66223,-0.0732 0.98835,-0.14237 0.3996,-0.067 0.79071,-0.17395 1.18892,-0.24863 0.37292,-0.0844 0.75235,-0.13697 1.12075,-0.24058 0.34593,-0.085 0.68697,-0.18614 1.02403,-0.30179 0.40929,-0.12657 0.82175,-0.24772 1.21487,-0.41986 0.3328,-0.14531 0.65248,-0.31409 0.96901,-0.4921 0.38673,-0.21101 0.7815,-0.4248 1.09602,-0.73865 0.20942,-0.20901 0.34272,-0.46994 0.48782,-0.72538 0.19551,-0.32637 0.37542,-0.66306 0.5361,-1.0079 0.13866,-0.37702 0.22334,-0.76432 0.19595,-1.16929 -0.0226,-0.45131 -0.005,-0.91055 -0.11248,-1.35244 -0.11041,-0.38073 -0.21332,-0.76753 -0.3926,-1.1229 -0.0607,-0.14018 -0.0929,-0.23585 -0.18141,-0.36048 -0.17754,-0.2501 -0.43897,-0.42337 -0.66843,-0.61956 -0.54988,-0.45289 -1.11011,-0.91159 -1.52178,-1.50014 -0.23196,-0.38538 -0.48009,-0.76418 -0.64165,-1.18647 0,0 -4.42841,0.27502 -4.42841,0.27502 z" />
    <path
       style="fill:#aad400;stroke-width:0.594"
       id="path3145"
       d="m 105.42128,133.58056 c -0.5022,0.3562 -1.09176,0.56454 -1.66901,0.76474 -0.099,0.0136 -0.19731,0.0341 -0.29701,0.0409 -0.0873,0.006 -0.35008,-0.002 -0.26256,-0.003 1.3485,-0.01 2.69705,-0.0122 4.04553,-0.0252 0.0624,-5.9e-4 -0.12507,-0.004 -0.18695,-0.0119 -0.10453,-0.0141 -0.23041,-0.053 -0.33194,-0.0815 -0.2254,-0.0628 -0.43309,-0.17397 -0.65446,-0.2476 -0.17049,-0.0567 -0.21533,-0.0599 -0.39476,-0.0963 -1.80101,-0.20813 -3.63337,-0.21189 -5.43819,-0.0354 -0.235964,0.0335 -0.47774,-0.001 -0.71035,0.0493 -0.318396,0.10085 -0.644277,0.17723 -0.969402,0.25441 -0.158456,0.01 -0.291215,0.081 -0.431999,0.1426 -0.09771,0.0428 -0.202845,0.0642 -0.302667,0.10158 -0.03202,0.009 -0.06358,0.0194 -0.09614,0.0258 -0.105761,0.0207 -0.09855,-3.5e-4 -0.206729,0.0388 -0.09334,0.0338 -0.177779,0.0892 -0.270728,0.12403 -0.05007,0.0188 -0.102393,0.0308 -0.153584,0.0462 -0.33586,0.13732 -0.67618,0.26354 -1.029664,0.34698 -0.380576,0.0714 -0.76822,0.0842 -1.154338,0.0976 -0.428672,-0.0121 -0.851814,0.0438 -1.271677,0.12445 -0.391707,0.0699 -0.769218,0.19519 -1.153892,0.29289 -0.351102,0.12353 -0.696768,0.25286 -1.00367,0.46615 -0.279798,0.22869 -0.445607,0.55619 -0.651267,0.84591 -0.160517,0.26665 -0.355165,0.51379 -0.506338,0.78621 -0.04995,0.09 -0.139144,0.28992 -0.183065,0.38612 -0.147431,0.30866 -0.283023,0.62388 -0.361378,0.95781 -0.07737,0.24692 -0.113151,0.51351 -0.21479,0.752 -0.05548,0.1582 -0.141313,0.30378 -0.199257,0.45971 -0.08751,0.23849 -0.184532,0.47224 -0.294672,0.70107 -0.135467,0.30991 -0.172747,0.6523 -0.205607,0.98605 -0.03784,0.30696 -0.0071,0.61539 0.05679,0.91629 0.102899,0.3859 0.273419,0.74372 0.482346,1.08206 0.247859,0.40309 0.56256,0.76219 0.901692,1.09053 0.194411,0.17732 0.38038,0.36871 0.597576,0.51924 0.164425,0.11396 0.246379,0.15283 0.422619,0.24955 0.477499,0.26252 0.990923,0.44623 1.502749,0.62821 0.524431,0.18181 1.040902,0.38548 1.551255,0.60344 0.287341,0.12265 0.57473,0.24452 0.848279,0.396 0.225103,0.14862 0.431749,0.32211 0.651802,0.47813 0.271892,0.21882 0.557036,0.41913 0.846046,0.61476 1.788493,1.07109 1.662903,0.43008 5.24878,0.49153 0.26912,-0.29045 0.38571,-0.67438 0.53603,-1.03205 0,0 -4.240968,-0.19244 -4.240968,-0.19244 v 0 c -0.108779,0.19305 -0.246765,0.52926 -0.506272,0.57457 -0.04443,0.008 -0.08775,-0.021 -0.13163,-0.0316 7.24996,0.13818 4.93657,0.59716 3.43307,-0.2516 -0.15086,-0.0853 -0.28534,-0.18201 -0.42777,-0.27999 -0.0883,-0.0607 -0.18736,-0.10602 -0.2707,-0.17336 -0.0409,-0.033 -0.0738,-0.0748 -0.11063,-0.11226 -0.20946,-0.18887 -0.455698,-0.3253 -0.665535,-0.51291 -0.124015,-0.0988 -0.251517,-0.19289 -0.39479,-0.26301 -0.04948,-0.0242 -0.102691,-0.0401 -0.152842,-0.0629 -0.311921,-0.14187 -0.0281,-0.0364 -0.371084,-0.15205 -0.52961,-0.21012 -1.065974,-0.40237 -1.591427,-0.62296 -0.494903,-0.16696 -0.990625,-0.33938 -1.464085,-0.56095 -0.125577,-0.0681 -0.254867,-0.12942 -0.378217,-0.20144 -0.224895,-0.13132 -0.425031,-0.30463 -0.629296,-0.46433 -0.06062,-0.052 -0.288488,-0.24539 -0.345643,-0.30283 -0.200106,-0.20112 -0.354374,-0.44359 -0.523302,-0.66983 -0.182399,-0.29403 -0.358502,-0.58976 -0.441282,-0.92998 -0.0512,-0.26143 -0.07629,-0.52322 -0.05233,-0.78975 0.0215,-0.28809 0.06098,-0.57084 0.201984,-0.82868 0.113104,-0.23777 0.222744,-0.47713 0.338016,-0.7139 0.08597,-0.16407 0.138711,-0.34281 0.19659,-0.5182 0.04871,-0.25779 0.10395,-0.51358 0.176234,-0.76604 0.08586,-0.30214 0.19801,-0.59444 0.3255,-0.88156 0.177315,-0.3874 0.404526,-0.74976 0.66847,-1.08438 0.196133,-0.25842 0.400183,-0.52123 0.694784,-0.67262 0.301015,-0.15536 0.624698,-0.26262 0.952378,-0.34634 0.373448,-0.10671 0.75378,-0.19008 1.137926,-0.24778 0.414671,-0.0503 0.829425,-0.0693 1.2468,-0.0837 0.411303,-0.0304 0.832041,-0.0539 1.224311,-0.19128 0.33872,-0.12389 0.67382,-0.25871 1.01947,-0.36249 0.11943,-0.0435 0.19148,-0.0737 0.31345,-0.10351 0.15612,-0.0381 0.31549,-0.0588 0.46068,-0.13389 0.0996,-0.0334 0.19356,-0.0819 0.29332,-0.11385 0.12315,-0.0395 0.25511,-0.0495 0.37711,-0.0936 0.3314,-0.0831 0.66959,-0.16654 1.01119,-0.18543 0.23186,0.005 0.46185,-0.0264 0.69279,-0.0437 1.43485,-0.082 3.52704,-0.008 -3.84352,-0.0191 -0.0709,-1.1e-4 0.14186,0.002 0.21277,0.004 0.0728,0.002 0.14556,0.004 0.2183,0.007 0.0703,0.003 0.14056,0.007 0.21084,0.0101 0.1778,0.0136 0.35998,0.0236 0.53323,0.0701 0.16953,0.0455 0.32198,0.13353 0.48579,0.19417 1.69853,0.68729 2.28833,0.239 5.06152,0.20714 0.083,-0.001 0.16285,-0.0333 0.2423,-0.0572 0.0923,-0.0279 0.18138,-0.0653 0.27207,-0.098 0.622,-0.26133 1.24505,-0.52072 1.84963,-0.82104 0,0 -4.3946,-0.45441 -4.3946,-0.45441 z" />
    <path
       style="fill:#aad400;stroke-width:0.594"
       id="path3147"
       d="m 100.26627,133.51968 c -0.374878,0.0449 -0.751302,0.0709 -1.127601,0.1051 -0.70857,0.0644 -1.420854,0.0522 -2.13047,0.0921 -0.547816,0.0406 -0.997783,0.35036 -1.472472,0.59183 -0.193846,0.0895 -0.37381,0.2044 -0.559792,0.30778 -0.132961,0.0739 -0.265488,0.13744 -0.394178,0.21956 -0.196115,0.12174 -0.414755,0.20863 -0.605108,0.3398 -0.128316,0.0884 -0.248642,0.18797 -0.375568,0.27836 -0.07395,0.0515 -0.150621,0.0993 -0.221848,0.15451 -0.286557,0.22208 -0.545963,0.47905 -0.817878,0.71811 -0.328993,0.27987 -0.172302,0.14328 -0.470781,0.40894 -0.14951,0.1366 -0.272788,0.29366 -0.418431,0.43374 0,0 4.337233,0.3343 4.337233,0.3343 v 0 c 0.125602,-0.13749 0.239911,-0.2808 0.361034,-0.42216 0.212604,-0.22186 0.428131,-0.44014 0.668291,-0.63296 0.253359,-0.20342 0.335598,-0.24686 0.60585,-0.41763 0.08166,-0.0516 0.163594,-0.1028 0.245388,-0.15419 0.341633,-0.21396 0.704092,-0.38862 1.053429,-0.58926 0.29539,-0.16522 0.574576,-0.35815 0.879233,-0.5074 0.107603,-0.056 0.314409,-0.16649 0.427519,-0.21461 0.31201,-0.13274 0.64503,-0.18978 0.9827,-0.20139 0.70328,-0.0309 1.40692,-0.0551 2.10922,-0.10516 0.44237,-0.0254 0.88545,-0.0522 1.32531,-0.10623 0,0 -4.40108,-0.63318 -4.40108,-0.63318 z" />
    <path
       style="fill:#aad400;stroke-width:0.594"
       id="path3153"
       d="m 78.801143,176.15536 c -0.175313,-0.12998 -0.311215,-0.29372 -0.41419,-0.48466 -0.06566,-0.15329 -0.145602,-0.30049 -0.203677,-0.45694 -0.07417,-0.11993 -0.110324,-0.25606 -0.139839,-0.39318 -0.03986,-0.20338 -0.07834,-0.40283 -0.195432,-0.57716 -0.01556,-0.0818 -0.104313,-0.11834 -0.141182,-0.18435 -0.08097,-0.14497 0.01764,-0.002 -0.05382,-0.1015 -0.0499,-0.11416 -0.100659,-0.23331 -0.114303,-0.35817 0.388452,1.71945 -3.619711,0.23924 -4.39266,0.23381 -0.01473,-1e-4 0.03017,-4.6e-4 0.0439,0.005 0.04271,0.0166 0.0622,0.0548 0.08865,0.0891 0.137327,0.15585 0.22338,0.34551 0.326564,0.52331 0.07405,0.11581 0.119786,0.24502 0.149996,0.37831 0.04004,0.17668 0.07827,0.35221 0.145037,0.52091 0.07037,0.15655 0.155575,0.30429 0.23207,0.45771 0.108239,0.0903 0.174185,0.22092 0.255783,0.33492 0.01354,0.0249 0.02709,0.0499 0.04063,0.0749 0,0 4.429013,-0.27203 4.429013,-0.27203 v 0 c -0.01426,-0.0145 -0.02851,-0.029 -0.04271,-0.0435 -0.07651,-0.14544 -0.184223,-0.26782 -0.248921,-0.41927 -0.01354,-0.003 -0.02887,-0.002 -0.04063,-0.009 -0.0439,-0.0271 -0.05239,-0.0768 -0.07569,-0.1185 -0.04021,-0.072 -0.105743,-0.1199 -0.13125,-0.20062 -0.08324,-0.13531 -0.08151,-0.26703 -0.132973,-0.41486 -0.03398,-0.18125 -0.07843,-0.36318 -0.160445,-0.52925 -0.01633,-0.0262 -0.03273,-0.0524 -0.04906,-0.0786 -0.01847,-0.0235 -0.03932,-0.0453 -0.05536,-0.0705 -0.08046,-0.12653 -0.14199,-0.26554 -0.216876,-0.3954 -0.05245,-0.0904 -0.03398,-0.0526 -0.07809,-0.15504 -0.01164,-0.027 -0.0048,-0.0802 -0.03415,-0.0813 -2.73809,-0.0981 -4.508804,-1.54176 -4.500821,0.26725 0.04817,0.14452 0.07121,0.29807 0.122548,0.44193 0.08465,0.28276 -0.02429,-0.045 0.05305,0.11722 0.0439,0.0921 0.05768,0.19895 0.157112,0.25303 0.02631,0.0378 0.05316,0.0855 0.09328,0.11232 0.01182,0.008 0.0335,5.9e-4 0.04075,0.0129 0.03938,0.0662 0.02934,0.19744 0.06863,0.26806 0.02869,0.1757 0.04758,0.36244 0.120357,0.5254 0.05875,0.0723 0.0136,0.008 0.06406,0.12178 0.106949,0.24061 -0.03012,-0.0809 0.08052,0.13947 0.114613,0.22838 -0.03196,-0.0143 0.09025,0.17942 0.101271,0.2309 0.226367,0.44657 0.395841,0.63518 0,0 4.423982,-0.34817 4.423982,-0.34817 z" />
  </g>
</svg>
