<?xml version="1.0" encoding="UTF-8" standalone="no"?>
<!-- Created with Inkscape (http://www.inkscape.org/) -->

<svg
   width="350px"
   height="100px"
   viewBox="0 0 210 297"
   version="1.1"
   id="svg5"
   inkscape:version="1.1.2 (b8e25be833, 2022-02-05)"
   sodipodi:docname="stars.svg"
   xmlns:inkscape="http://www.inkscape.org/namespaces/inkscape"
   xmlns:sodipodi="http://sodipodi.sourceforge.net/DTD/sodipodi-0.dtd"
   xmlns="http://www.w3.org/2000/svg"
   xmlns:svg="http://www.w3.org/2000/svg">
  <sodipodi:namedview
     id="namedview7"
     pagecolor="#505050"
     bordercolor="#eeeeee"
     borderopacity="1"
     inkscape:pageshadow="0"
     inkscape:pageopacity="0"
     inkscape:pagecheckerboard="0"
     inkscape:document-units="mm"
     showgrid="false"
     inkscape:zoom="2.6933333"
     inkscape:cx="149.81436"
     inkscape:cy="60.891089"
     inkscape:window-width="1920"
     inkscape:window-height="1017"
     inkscape:window-x="-8"
     inkscape:window-y="-8"
     inkscape:window-maximized="1"
     inkscape:current-layer="layer1" />
  <defs
     id="defs2" />
  <g
     inkscape:label="Layer 1"
     inkscape:groupmode="layer"
     id="layer1">
    <path
       sodipodi:type="star"
       style="fill:#ffffff"
       id="path53"
       inkscape:flatsided="false"
       sodipodi:sides="5"
       sodipodi:cx="24.133663"
       sodipodi:cy="21.905941"
       sodipodi:r1="40.6199"
       sodipodi:r2="20.30995"
       sodipodi:arg1="0.9346077"
       sodipodi:arg2="1.5629262"
       inkscape:rounded="0"
       inkscape:randomized="0"
       d="M 48.267328,54.57921 24.293503,42.215262 0.51725048,54.955015 4.8677446,28.333883 -14.595747,9.6581234 12.06683,5.569307 23.813984,-18.712701 35.941869,5.3814035 62.665501,9.0500574 43.498368,28.029849 Z"
       transform="matrix(2.4704572,0,0,2.371245,-369.1105,106.78702)"
       inkscape:transform-center-x="0.24404845"
       inkscape:transform-center-y="-8.974648" />
    <path
       sodipodi:type="star"
       style="fill:#ffffff"
       id="path135"
       inkscape:flatsided="false"
       sodipodi:sides="5"
       sodipodi:cx="24.133663"
       sodipodi:cy="21.905941"
       sodipodi:r1="40.6199"
       sodipodi:r2="20.30995"
       sodipodi:arg1="0.9346077"
       sodipodi:arg2="1.5629262"
       inkscape:rounded="0"
       inkscape:randomized="0"
       d="M 48.267328,54.57921 24.293503,42.215262 0.51725048,54.955015 4.8677446,28.333883 -14.595747,9.6581234 12.06683,5.569307 23.813984,-18.712701 35.941869,5.3814035 62.665501,9.0500574 43.498368,28.029849 Z"
       transform="matrix(2.4704572,0,0,2.371245,-161.2105,106.78702)"
       inkscape:transform-center-x="0.24404845"
       inkscape:transform-center-y="-8.974648" />
    <path
       sodipodi:type="star"
       style="fill:#ffffff"
       id="path137"
       inkscape:flatsided="false"
       sodipodi:sides="5"
       sodipodi:cx="24.133663"
       sodipodi:cy="21.905941"
       sodipodi:r1="40.6199"
       sodipodi:r2="20.30995"
       sodipodi:arg1="0.9346077"
       sodipodi:arg2="1.5629262"
       inkscape:rounded="0"
       inkscape:randomized="0"
       d="M 48.267328,54.57921 24.293503,42.215262 0.51725048,54.955015 4.8677446,28.333883 -14.595747,9.6581234 12.06683,5.569307 23.813984,-18.712701 35.941869,5.3814035 62.665501,9.0500574 43.498368,28.029849 Z"
       transform="matrix(2.4704572,0,0,2.371245,46.6895,106.78702)"
       inkscape:transform-center-x="0.24404845"
       inkscape:transform-center-y="-8.974648" />
    <path
       sodipodi:type="star"
       style="fill:#ffffff"
       id="path139"
       inkscape:flatsided="false"
       sodipodi:sides="5"
       sodipodi:cx="24.133663"
       sodipodi:cy="21.905941"
       sodipodi:r1="40.6199"
       sodipodi:r2="20.30995"
       sodipodi:arg1="0.9346077"
       sodipodi:arg2="1.5629262"
       inkscape:rounded="0"
       inkscape:randomized="0"
       d="M 48.267328,54.57921 24.293503,42.215262 0.51725048,54.955015 4.8677446,28.333883 -14.595747,9.6581234 12.06683,5.569307 23.813984,-18.712701 35.941869,5.3814035 62.665501,9.0500574 43.498368,28.029849 Z"
       transform="matrix(2.4704572,0,0,2.371245,254.5895,106.78702)"
       inkscape:transform-center-x="0.24404845"
       inkscape:transform-center-y="-8.974648" />
    <path
       sodipodi:type="star"
       style="fill:#ffffff"
       id="path141"
       inkscape:flatsided="false"
       sodipodi:sides="5"
       sodipodi:cx="24.133663"
       sodipodi:cy="21.905941"
       sodipodi:r1="40.6199"
       sodipodi:r2="20.30995"
       sodipodi:arg1="0.9346077"
       sodipodi:arg2="1.5629262"
       inkscape:rounded="0"
       inkscape:randomized="0"
       d="M 48.267328,54.57921 24.293503,42.215262 0.51725048,54.955015 4.8677446,28.333883 -14.595747,9.6581234 12.06683,5.569307 23.813984,-18.712701 35.941869,5.3814035 62.665501,9.0500574 43.498368,28.029849 Z"
       transform="matrix(2.4704572,0,0,2.371245,462.4895,106.78702)"
       inkscape:transform-center-x="0.24404845"
       inkscape:transform-center-y="-8.974648" />
    <path
       sodipodi:type="star"
       style="fill:#ffcc00"
       id="path187"
       inkscape:flatsided="false"
       sodipodi:sides="5"
       sodipodi:cx="18.935644"
       sodipodi:cy="11.509901"
       sodipodi:r1="30.000828"
       sodipodi:r2="15.000414"
       sodipodi:arg1="0.93472082"
       sodipodi:arg2="1.5630394"
       inkscape:rounded="0"
       inkscape:randomized="0"
       d="M 36.757427,35.643565 19.052,26.509864 1.4903996,35.917136 4.7057879,16.255805 -9.6678926,2.4607379 10.024753,-0.55693131 18.702931,-18.490024 27.658267,-0.69371593 47.395356,2.0180908 33.237412,16.034483 Z"
       transform="matrix(2.97,0,0,2.97,-371.06114,119.75386)"
       inkscape:transform-center-x="0.21357967"
       inkscape:transform-center-y="-8.3051452" />
    <path
       sodipodi:type="star"
       style="fill:#ffcc00"
       id="path269"
       inkscape:flatsided="false"
       sodipodi:sides="5"
       sodipodi:cx="18.935644"
       sodipodi:cy="11.509901"
       sodipodi:r1="30.000828"
       sodipodi:r2="15.000414"
       sodipodi:arg1="0.93472082"
       sodipodi:arg2="1.5630394"
       inkscape:rounded="0"
       inkscape:randomized="0"
       d="M 36.757427,35.643565 19.052,26.509864 1.4903996,35.917136 4.7057879,16.255805 -9.6678926,2.4607379 10.024753,-0.55693131 18.702931,-18.490024 27.658267,-0.69371593 47.395356,2.0180908 33.237412,16.034483 Z"
       transform="matrix(2.97,0,0,2.97,-163.16114,119.75386)"
       inkscape:transform-center-x="0.21357967"
       inkscape:transform-center-y="-8.3051452" />
    <path
       sodipodi:type="star"
       style="fill:#ffcc00"
       id="path271"
       inkscape:flatsided="false"
       sodipodi:sides="5"
       sodipodi:cx="18.935644"
       sodipodi:cy="11.509901"
       sodipodi:r1="30.000828"
       sodipodi:r2="15.000414"
       sodipodi:arg1="0.93472082"
       sodipodi:arg2="1.5630394"
       inkscape:rounded="0"
       inkscape:randomized="0"
       d="M 36.757427,35.643565 19.052,26.509864 1.4903996,35.917136 4.7057879,16.255805 -9.6678926,2.4607379 10.024753,-0.55693131 18.702931,-18.490024 27.658267,-0.69371593 47.395356,2.0180908 33.237412,16.034483 Z"
       transform="matrix(2.97,0,0,2.97,44.73886,119.75386)"
       inkscape:transform-center-x="0.21357967"
       inkscape:transform-center-y="-8.3051452" />
    <path
       sodipodi:type="star"
       style="fill:#ffcc00"
       id="path273"
       inkscape:flatsided="false"
       sodipodi:sides="5"
       sodipodi:cx="18.935644"
       sodipodi:cy="11.509901"
       sodipodi:r1="30.000828"
       sodipodi:r2="15.000414"
       sodipodi:arg1="0.93472082"
       sodipodi:arg2="1.5630394"
       inkscape:rounded="0"
       inkscape:randomized="0"
       d="M 36.757427,35.643565 19.052,26.509864 1.4903996,35.917136 4.7057879,16.255805 -9.6678926,2.4607379 10.024753,-0.55693131 18.702931,-18.490024 27.658267,-0.69371593 47.395356,2.0180908 33.237412,16.034483 Z"
       transform="matrix(2.97,0,0,2.97,252.63886,119.75386)"
       inkscape:transform-center-x="0.21357967"
       inkscape:transform-center-y="-8.3051452" />
    <path
       sodipodi:type="star"
       style="fill:#ffcc00"
       id="path275"
       inkscape:flatsided="false"
       sodipodi:sides="5"
       sodipodi:cx="18.935644"
       sodipodi:cy="11.509901"
       sodipodi:r1="30.000828"
       sodipodi:r2="15.000414"
       sodipodi:arg1="0.93472082"
       sodipodi:arg2="1.5630394"
       inkscape:rounded="0"
       inkscape:randomized="0"
       d="M 36.757427,35.643565 19.052,26.509864 1.4903996,35.917136 4.7057879,16.255805 -9.6678926,2.4607379 10.024753,-0.55693131 18.702931,-18.490024 27.658267,-0.69371593 47.395356,2.0180908 33.237412,16.034483 Z"
       transform="matrix(2.97,0,0,2.97,460.53886,119.75386)"
       inkscape:transform-center-x="0.21357967"
       inkscape:transform-center-y="-8.3051452" />
  </g>
</svg>
